<svg xmlns="http://www.w3.org/2000/svg" width="30" height="68.06" viewBox="0 0 30 68.06">
  <metadata><?xpacket begin="﻿" id="W5M0MpCehiHzreSzNTczkc9d"?>
<x:xmpmeta xmlns:x="adobe:ns:meta/" x:xmptk="Adobe XMP Core 5.6-c138 79.159824, 2016/09/14-01:09:01        ">
   <rdf:RDF xmlns:rdf="http://www.w3.org/1999/02/22-rdf-syntax-ns#">
      <rdf:Description rdf:about=""/>
   </rdf:RDF>
</x:xmpmeta>
                                                                                                    
                                                                                                    
                                                                                                    
                                                                                                    
                                                                                                    
                                                                                                    
                                                                                                    
                                                                                                    
                                                                                                    
                                                                                                    
                                                                                                    
                                                                                                    
                                                                                                    
                                                                                                    
                                                                                                    
                                                                                                    
                                                                                                    
                                                                                                    
                                                                                                    
                                                                                                    
                           
<?xpacket end="w"?></metadata>
<defs>
    <style>
      .cls-1 {
        fill: #fff;
        fill-rule: evenodd;
      }
    </style>
  </defs>
  <path id="Forma_1" data-name="Forma 1" class="cls-1" d="M526.417,8694.04a4.792,4.792,0,1,1-4.657,4.79A4.72,4.72,0,0,1,526.417,8694.04Zm2.223-7.78c-0.873.99,7.1,8,7.1,13.05,0,2.53-3.608,6.77-4.589,7.47-0.6.43-2.546,0.36-4.9,0.39-1.485.02-4.4-.03-4.868-0.51-1.226-1.26-4.4-4.96-4.4-6.82,0-3.93,7.175-13.15,6.06-13.86-1.012-.65-11.023,10.54-11.023,14.03,0,5.36,6.99,13.25,6.99,13.25s-0.056,10.81-.056,11.94c0,9.7,3.29,28.81,6.144,28.81,1.757,0,.222-10.16.222-14.97a69.5,69.5,0,0,1,1.1-11.43s8.753,3.14,7.82,4.12c-2.19,2.32-8.138,4.57-7.368,5.76,0.973,1.49,9.689-.84,14.869-5.05,2.17-1.77-8.781-10.21-8.781-10.21,0-4.72.063-4.83-.163-8.97,0,0,7.441-8.35,7.441-13.1C540.235,8693.56,529.919,8684.81,528.64,8686.26Z" transform="translate(-512.031 -8685.94)"/>
</svg>
