<svg xmlns="http://www.w3.org/2000/svg" width="68" height="47" viewBox="0 0 68 47">
  <metadata><?xpacket begin="﻿" id="W5M0MpCehiHzreSzNTczkc9d"?>
<x:xmpmeta xmlns:x="adobe:ns:meta/" x:xmptk="Adobe XMP Core 5.6-c138 79.159824, 2016/09/14-01:09:01        ">
   <rdf:RDF xmlns:rdf="http://www.w3.org/1999/02/22-rdf-syntax-ns#">
      <rdf:Description rdf:about=""/>
   </rdf:RDF>
</x:xmpmeta>
<?xpacket end="w"?></metadata>
<defs>
    <style>
      .cls-1 {
        fill: #fff;
        fill-rule: evenodd;
      }
    </style>
  </defs>
  <path id="Forma_1" data-name="Forma 1" class="cls-1" d="M980.135,8816.16a1.318,1.318,0,0,0,1.853-.13c0.2-.24,4.942-5.77,1.349-10.27-1.994-2.5-.522-3.95-0.2-4.22a1.294,1.294,0,0,0,.2-1.82,1.313,1.313,0,0,0-1.846-.21c-1.377,1.09-3.193,4.14-.21,7.87,2.238,2.8-1.244,6.9-1.278,6.94A1.3,1.3,0,0,0,980.135,8816.16Zm11.5-5.23a1.285,1.285,0,0,0,.859.32,1.3,1.3,0,0,0,.994-0.45c0.2-.23,4.942-5.77,1.349-10.27-1.993-2.49-.521-3.94-0.2-4.21a1.307,1.307,0,0,0,.2-1.83,1.322,1.322,0,0,0-1.846-.21c-1.377,1.1-3.194,4.14-.21,7.88,2.237,2.8-1.244,6.89-1.279,6.93A1.3,1.3,0,0,0,991.63,8810.93Zm10.18,0a1.278,1.278,0,0,0,.86.32,1.312,1.312,0,0,0,.99-0.45c0.2-.23,4.94-5.77,1.35-10.27-1.99-2.49-.52-3.94-0.2-4.21a1.3,1.3,0,0,0,.2-1.83,1.327,1.327,0,0,0-1.85-.21c-1.38,1.1-3.192,4.14-.21,7.88,2.24,2.8-1.24,6.89-1.28,6.93A1.3,1.3,0,0,0,1001.81,8810.93Zm26.72-10.26a7.185,7.185,0,1,1-7.23,7.18A7.2,7.2,0,0,1,1028.53,8800.67ZM977.891,8841h52.219a7.868,7.868,0,0,0,7.89-7.83v-7.44c0-1.5-1.49-2.68-3.82-3.61a7.264,7.264,0,0,1-.19,1.39c-0.1.4-.21,0.78-0.32,1.15a3.67,3.67,0,0,1,1.67,1.06,1.3,1.3,0,0,1-.12.14,0.936,0.936,0,0,1-.14.16c-0.07.05-.16,0.12-0.25,0.18s-0.15.1-.25,0.16-0.25.13-.38,0.19a3.971,3.971,0,0,1-.36.17c-0.01.01-.03,0.01-0.04,0.02a10.335,10.335,0,0,0-.97.37c-0.31.13-.66,0.26-0.99,0.38a26.463,26.463,0,0,0,1.6-4.58c0.86-3.51-2.02-6.64-5.36-6.84a9.879,9.879,0,0,0-2.26.18c-1.32-.91-3.95-2.21-8.84-3.11,0.94-2.06,1.52-4.88-.47-7.38s-0.53-3.95-.2-4.22a1.308,1.308,0,0,0-1.65-2.03c-1.38,1.09-3.2,4.14-.21,7.88,1.36,1.7.61,3.87-.2,5.33a79.193,79.193,0,0,0-9.5-.59h-0.02a2.615,2.615,0,1,0-.02,5.23c7.33,0.05,11.9.88,14.65,1.71a11.415,11.415,0,0,0-1.7,1.52c-0.74.82-1.55,1.73-2.37,2.66-5.93.92-9.57-.26-9.67-0.3a2.647,2.647,0,0,0-3.36,1.57,2.606,2.606,0,0,0,1.57,3.35,21.877,21.877,0,0,0,6.56.96c-0.48.56-.83,1.03-1.13,1.45-0.97,0-1.8-.02-2.39-0.03-0.13-.02-0.26-0.03-0.38-0.05-0.82.01-1.63,0.03-2.49,0.03-1.22,0-2.4-.01-3.56-0.03-0.43-.01-0.835-0.03-1.259-0.04l-2.088-.06c-0.611-.02-1.188-0.06-1.776-0.08-0.453-.03-0.922-0.04-1.362-0.07-0.762-.04-1.487-0.1-2.21-0.15-0.234-.01-0.482-0.03-0.712-0.05-11.307-.88-17.676-2.79-18.375-4.02,0.934-1.65,11.961-4.5,31.342-4.5,3.87,0,7.39.12,10.58,0.31l1.35-1.51a60.406,60.406,0,0,0-11.95-1.07,4.021,4.021,0,0,1-1.55-.33c-6.729.09-32.42,0.86-32.42,7.1v7.44A7.861,7.861,0,0,0,977.891,8841Z" transform="translate(-970 -8794)"/>
</svg>
