<svg xmlns="http://www.w3.org/2000/svg" width="15" height="28.938" viewBox="0 0 15 28.938">
  <metadata><?xpacket begin="﻿" id="W5M0MpCehiHzreSzNTczkc9d"?>
<x:xmpmeta xmlns:x="adobe:ns:meta/" x:xmptk="Adobe XMP Core 5.6-c138 79.159824, 2016/09/14-01:09:01        ">
   <rdf:RDF xmlns:rdf="http://www.w3.org/1999/02/22-rdf-syntax-ns#">
      <rdf:Description rdf:about=""/>
   </rdf:RDF>
</x:xmpmeta>
                                                                                                    
                                                                                                    
                                                                                                    
                                                                                                    
                                                                                                    
                                                                                                    
                                                                                                    
                                                                                                    
                                                                                                    
                                                                                                    
                                                                                                    
                                                                                                    
                                                                                                    
                                                                                                    
                                                                                                    
                                                                                                    
                                                                                                    
                                                                                                    
                                                                                                    
                                                                                                    
                           
<?xpacket end="w"?></metadata>
<defs>
    <style>
      .cls-1 {
        fill: #000000;
        fill-rule: evenodd;
      }
    </style>
  </defs>
  <path id="Forma_1_копия_2" data-name="Forma 1 копия 2" class="cls-1" d="M31.974,471H21a2.053,2.053,0,0,0-2.013,2.089v24.771A2.05,2.05,0,0,0,21,499.945H31.974a2.05,2.05,0,0,0,2.013-2.086V473.088A2.053,2.053,0,0,0,31.974,471Zm-6.834,1.235h2.693a0.183,0.183,0,0,1,0,.365H25.14A0.183,0.183,0,0,1,25.14,472.234Zm-2.684-.439a0.292,0.292,0,1,1-.281.292A0.288,0.288,0,0,1,22.456,471.8Zm-1.273-.174a0.466,0.466,0,1,1-.449.466A0.458,0.458,0,0,1,21.183,471.621Zm6.007,27.266H25.785a0.837,0.837,0,0,1,0-1.673H27.19A0.837,0.837,0,0,1,27.19,498.887Zm5.945-2.334H19.84V474.392H33.135v22.161Z" transform="translate(-19 -471)"/>
</svg>
