<svg xmlns="http://www.w3.org/2000/svg" width="54" height="54" viewBox="0 0 54 54">
  <metadata><?xpacket begin="﻿" id="W5M0MpCehiHzreSzNTczkc9d"?>
<x:xmpmeta xmlns:x="adobe:ns:meta/" x:xmptk="Adobe XMP Core 5.6-c138 79.159824, 2016/09/14-01:09:01        ">
   <rdf:RDF xmlns:rdf="http://www.w3.org/1999/02/22-rdf-syntax-ns#">
      <rdf:Description rdf:about=""/>
   </rdf:RDF>
</x:xmpmeta>
<?xpacket end="w"?></metadata>
<defs>
    <style>
      .cls-1 {
        fill: #fff;
        fill-rule: evenodd;
      }
    </style>
  </defs>
  <path class="cls-1" d="M1019.97,12768.6h-7.12v8.4h-8.19v7.3h8.19v8.3h7.12v-8.3h8.19v-7.3h-8.19v-8.4Zm-18.87,4.8h8.19v-8.4h14.24v8.4h4.13a15.826,15.826,0,0,0,2.34-8.2,15.04,15.04,0,0,0-14.89-15.2,14.687,14.687,0,0,0-12.11,6.4,14.689,14.689,0,0,0-12.115-6.4A15.041,15.041,0,0,0,976,12765.2a15.34,15.34,0,0,0,3.359,9.6L1003,12804l6.29-7.8v-8.3h-8.19v-14.5Z" transform="translate(-976 -12750)"/>
</svg>
