<svg xmlns="http://www.w3.org/2000/svg" width="59" height="61" viewBox="0 0 59 61">
  <metadata><?xpacket begin="﻿" id="W5M0MpCehiHzreSzNTczkc9d"?>
<x:xmpmeta xmlns:x="adobe:ns:meta/" x:xmptk="Adobe XMP Core 5.6-c138 79.159824, 2016/09/14-01:09:01        ">
   <rdf:RDF xmlns:rdf="http://www.w3.org/1999/02/22-rdf-syntax-ns#">
      <rdf:Description rdf:about=""/>
   </rdf:RDF>
</x:xmpmeta>
<?xpacket end="w"?></metadata>
<defs>
    <style>
      .cls-1 {
        fill: #fff;
        fill-rule: evenodd;
      }
    </style>
  </defs>
  <path id="Forma_1" data-name="Forma 1" class="cls-1" d="M554.2,8482.57H542.41v-1.77a1.8,1.8,0,1,0-3.6,0v1.77H528.3v-1.77a1.8,1.8,0,1,0-3.6,0v1.77H514.635v-1.77a1.8,1.8,0,1,0-3.6,0v1.77H498.8a1.8,1.8,0,0,0-1.8,1.8V8525a1.8,1.8,0,0,0,1.8,1.8h11.044a17.109,17.109,0,0,0,33.313,0H554.2a1.8,1.8,0,0,0,1.8-1.8v-40.63A1.8,1.8,0,0,0,554.2,8482.57Zm-43.165,3.6v1.62a1.8,1.8,0,1,0,3.6,0v-1.62H524.7v1.62a1.8,1.8,0,1,0,3.6,0v-1.62h10.512v1.62a1.8,1.8,0,1,0,3.6,0v-1.62H552.4v7.35H500.6v-7.35h10.437ZM526.5,8536.4a13.5,13.5,0,1,1,13.511-13.5A13.517,13.517,0,0,1,526.5,8536.4Zm17.1-13.2c0-.1.008-0.2,0.008-0.3a17.11,17.11,0,0,0-34.22,0c0,0.1.006,0.2,0.007,0.3h-8.8v-26.08h51.8v26.08h-8.8Zm-15.3.15v-8.69a1.8,1.8,0,1,0-3.6,0v9.44a1.777,1.777,0,0,0,.526,1.27l4.136,4.14a1.8,1.8,0,1,0,2.545-2.55Z" transform="translate(-497 -8479)"/>
</svg>
