<svg xmlns="http://www.w3.org/2000/svg" width="53.969" height="44" viewBox="0 0 53.969 44">
  <metadata><?xpacket begin="﻿" id="W5M0MpCehiHzreSzNTczkc9d"?>
<x:xmpmeta xmlns:x="adobe:ns:meta/" x:xmptk="Adobe XMP Core 5.6-c138 79.159824, 2016/09/14-01:09:01        ">
   <rdf:RDF xmlns:rdf="http://www.w3.org/1999/02/22-rdf-syntax-ns#">
      <rdf:Description rdf:about=""/>
   </rdf:RDF>
</x:xmpmeta>
                                                                                                    
                                                                                                    
                                                                                                    
                                                                                                    
                                                                                                    
                                                                                                    
                                                                                                    
                                                                                                    
                                                                                                    
                                                                                                    
                                                                                                    
                                                                                                    
                                                                                                    
                                                                                                    
                                                                                                    
                                                                                                    
                                                                                                    
                                                                                                    
                                                                                                    
                                                                                                    
                           
<?xpacket end="w"?></metadata>
<defs>
    <style>
      .cls-1 {
        fill: #fff;
        fill-rule: evenodd;
      }
    </style>
  </defs>
  <path id="Forma_1" data-name="Forma 1" class="cls-1" d="M527,12564c-2.722,0-4.93,2.4-4.93,5.5,0,3,2.208,5.5,4.93,5.5s4.928-2.5,4.928-5.5C531.926,12566.4,529.719,12564,527,12564Zm26.408-19.3c-6.592-8.7-16.218-13.7-26.408-13.7s-19.816,5-26.409,13.7a3.006,3.006,0,0,0,.3,3.9,2.1,2.1,0,0,0,1.582.7,2.53,2.53,0,0,0,1.89-1c5.652-7.5,13.9-11.8,22.635-11.8s16.982,4.3,22.635,11.8a2.527,2.527,0,0,0,1.889,1,2.1,2.1,0,0,0,1.583-.7A3.008,3.008,0,0,0,553.406,12544.7ZM527,12542a23.769,23.769,0,0,0-18.863,9.8,3,3,0,0,0,.3,3.9,2.411,2.411,0,0,0,1.583.6,2.244,2.244,0,0,0,1.888-1,18.5,18.5,0,0,1,30.18,0,2.246,2.246,0,0,0,1.887,1,2.411,2.411,0,0,0,1.583-.6,3.006,3.006,0,0,0,.3-3.9A23.771,23.771,0,0,0,527,12542Zm0,11a14.056,14.056,0,0,0-11.319,5.9,3.017,3.017,0,0,0,.3,3.9,2.415,2.415,0,0,0,1.584.6,2.246,2.246,0,0,0,1.889-1,9.246,9.246,0,0,1,15.088,0,2.244,2.244,0,0,0,1.887,1,2.418,2.418,0,0,0,1.585-.6,3.019,3.019,0,0,0,.3-3.9A14.057,14.057,0,0,0,527,12553Z" transform="translate(-500 -12531)"/>
</svg>
