<svg xmlns="http://www.w3.org/2000/svg" width="63" height="45" viewBox="0 0 63 45">
  <metadata><?xpacket begin="﻿" id="W5M0MpCehiHzreSzNTczkc9d"?>
<x:xmpmeta xmlns:x="adobe:ns:meta/" x:xmptk="Adobe XMP Core 5.6-c138 79.159824, 2016/09/14-01:09:01        ">
   <rdf:RDF xmlns:rdf="http://www.w3.org/1999/02/22-rdf-syntax-ns#">
      <rdf:Description rdf:about=""/>
   </rdf:RDF>
</x:xmpmeta>
                                                                                                    
                                                                                                    
                                                                                                    
                                                                                                    
                                                                                                    
                                                                                                    
                                                                                                    
                                                                                                    
                                                                                                    
                                                                                                    
                                                                                                    
                                                                                                    
                                                                                                    
                                                                                                    
                                                                                                    
                                                                                                    
                                                                                                    
                                                                                                    
                                                                                                    
                                                                                                    
                           
<?xpacket end="w"?></metadata>
<defs>
    <style>
      .cls-1 {
        fill: #fff;
        fill-rule: evenodd;
      }
    </style>
  </defs>
  <path id="Forma_1" data-name="Forma 1" class="cls-1" d="M1033.38,12680.4c-4.71-6.6-19.15-27.1-19.15-27.1a1.824,1.824,0,0,0-1.49-.8,1.955,1.955,0,0,0-1.64.5l-3.78,3.5-8.885-16.4a2,2,0,0,0-1.806-1.1,2.2,2.2,0,0,0-1.835,1l-23.517,40.9a2.123,2.123,0,0,0,0,2.1,2.149,2.149,0,0,0,1.8,1h58.836a2.064,2.064,0,0,0,2.08-2.1A2.765,2.765,0,0,0,1033.38,12680.4Zm-25.19-19,4.01-3.7,7.97,11.3-6.76-7.1a3.342,3.342,0,0,0-.42-0.2,0.666,0.666,0,0,0-.42.2l-4.82,4.8a0.767,0.767,0,0,1-.64.2,0.613,0.613,0,0,1-.36-0.6l0.02-4.4A1.876,1.876,0,0,0,1008.19,12661.4Zm-11.649-16,5.169,9.5-3.881,3.5a0.657,0.657,0,0,1-.439.1,0.605,0.605,0,0,1-.407-0.2l-2.489-3.2a0.8,0.8,0,0,0-.49-0.2,0.51,0.51,0,0,0-.466.3l-3.762,6a0.554,0.554,0,0,1-.55.2,0.5,0.5,0,0,1-.492-0.3l-0.5-1.3Z" transform="translate(-971 -12639)"/>
</svg>
