<svg xmlns="http://www.w3.org/2000/svg" width="63" height="66" viewBox="0 0 63 66">
  <metadata><?xpacket begin="﻿" id="W5M0MpCehiHzreSzNTczkc9d"?>
<x:xmpmeta xmlns:x="adobe:ns:meta/" x:xmptk="Adobe XMP Core 5.6-c138 79.159824, 2016/09/14-01:09:01        ">
   <rdf:RDF xmlns:rdf="http://www.w3.org/1999/02/22-rdf-syntax-ns#">
      <rdf:Description rdf:about=""/>
   </rdf:RDF>
</x:xmpmeta>
                                                                                                    
                                                                                                    
                                                                                                    
                                                                                                    
                                                                                                    
                                                                                                    
                                                                                                    
                                                                                                    
                                                                                                    
                                                                                                    
                                                                                                    
                                                                                                    
                                                                                                    
                                                                                                    
                                                                                                    
                                                                                                    
                                                                                                    
                                                                                                    
                                                                                                    
                                                                                                    
                           
<?xpacket end="w"?></metadata>
<defs>
    <style>
      .cls-1 {
        fill: #fff;
        stroke: #fff;
        stroke-linejoin: round;
        stroke-width: 1px;
        fill-rule: evenodd;
      }
    </style>
  </defs>
  <path class="cls-1" d="M548.032,8618.96l-20.186,3.6-5.733-5.87a0.992,0.992,0,0,0-.72-0.31H511.214a1.031,1.031,0,0,0-1.018-1.04H499v2.09h6.107v14.59H499v2.09h11.2a1.031,1.031,0,0,0,1.018-1.04h2.814l10.882,5.57a3.271,3.271,0,0,0,1.488.36,3.169,3.169,0,0,0,1.675-.47l22.206-13.26a3.463,3.463,0,0,0,.464-5.56A3.3,3.3,0,0,0,548.032,8618.96Zm-38.853,13.06h-2.036v-14.59h2.036v14.59Zm40.074-8.56-22.205,13.27a1.248,1.248,0,0,1-1.227.04l-11.1-5.68a1.035,1.035,0,0,0-.456-0.11h-3.054v-12.51h9.757l8.02,8.21a1.963,1.963,0,0,1,.545,1.35,1.851,1.851,0,0,1-3.177,1.35l-5.264-5.39-1.44,1.47,5.265,5.39a3.8,3.8,0,0,0,2.755,1.17,3.949,3.949,0,0,0,3.9-3.99,4.013,4.013,0,0,0-1.141-2.82l-0.824-.85,18.773-3.34a1.262,1.262,0,0,1,1.053.29A1.336,1.336,0,0,1,549.253,8623.46ZM556,8586.15v-2.09h-6.393a0.966,0.966,0,0,0-.732,0H544.8c-0.563,0-1.018,0-1.018,1.05h-2.814l-10.883-5.74a3.235,3.235,0,0,0-3.162.03l-22.206,13.22a3.425,3.425,0,0,0-.465,5.52,3.281,3.281,0,0,0,2.14.8,2.779,2.779,0,0,0,.572-0.06l20.185-3.59,5.733,6.03a1.21,1.21,0,0,0,.721.47h10.179a1.764,1.764,0,0,0,1.018,1.04H556v-2.09h-6.107v-14.59H556Zm-21.971,13.55-8.019-8.37a2.114,2.114,0,0,1-.546-1.43,1.926,1.926,0,0,1,1.861-1.95,1.811,1.811,0,0,1,1.316.54l5.264,5.38,1.44-1.48-5.264-5.39a3.8,3.8,0,0,0-2.756-1.17,3.949,3.949,0,0,0-3.9,3.99,4.026,4.026,0,0,0,1.141,2.82l0.823,0.84-18.773,3.35a1.262,1.262,0,0,1-1.054-.29,1.331,1.331,0,0,1-.459-1.01,1.349,1.349,0,0,1,.64-1.15l22.2-13.26a1.224,1.224,0,0,1,1.227-.04l11.1,5.84a1.38,1.38,0,0,0,.456.27h3.054v12.51h-9.757Zm11.792-13.55h2.036v14.59h-2.036v-14.59ZM527.5,8603.92a4.326,4.326,0,0,0-5.86.12,4.166,4.166,0,0,0,0,5.98l5.158,5.03a0.993,0.993,0,0,0,1.4,0l5.158-5.02a4.177,4.177,0,0,0,0-5.99h0A4.326,4.326,0,0,0,527.5,8603.92Zm4.456,4.59-4.456,4.35-4.456-4.35a2.041,2.041,0,0,1-.633-1.48,2.071,2.071,0,0,1,.633-1.48,2.3,2.3,0,0,1,3.18,0l0.573,0.56a0.987,0.987,0,0,0,1.4,0l0.573-.56a2.3,2.3,0,0,1,3.181,0,2.065,2.065,0,0,1,.635,1.48A2.041,2.041,0,0,1,531.956,8608.51Zm-16.267-7.59L514,8599.75a17.221,17.221,0,0,0-1.092,1.92l1.823,0.93A14.106,14.106,0,0,1,515.689,8600.92Zm-4.134,11.58a16.866,16.866,0,0,0,.584,2.14l1.919-.69a15.412,15.412,0,0,1-.511-1.88Zm-0.038-6.63,2,0.4a15.085,15.085,0,0,1,.487-1.88l-1.929-.67A17.039,17.039,0,0,0,511.517,8605.87Zm-0.3,3.22c0,0.4.016,0.81,0.043,1.21l2.03-.15c-0.024-.35-0.036-0.71-0.037-1.07,0-.29.008-0.59,0.025-0.88l-2.031-.13Q511.214,8608.58,511.214,8609.09Zm29.726-4.87a14.527,14.527,0,0,1,.51,1.87l1.994-.42a17.113,17.113,0,0,0-.584-2.14Zm-1.628,13.03,1.686,1.17a17.4,17.4,0,0,0,1.094-1.92l-1.823-.93A14.533,14.533,0,0,1,539.312,8617.25Zm1.687-3.47,1.929,0.67a16.873,16.873,0,0,0,.557-2.15l-2-.4A15.744,15.744,0,0,1,541,8613.78Zm2.787-4.69c0-.41-0.014-0.82-0.043-1.22l-2.03.15c0.025,0.35.038,0.71,0.037,1.06,0,0.3-.008.59-0.025,0.88l2.031,0.13C543.776,8609.76,543.786,8609.42,543.786,8609.09Z" transform="translate(-496 -8576)"/>
</svg>
