<svg xmlns="http://www.w3.org/2000/svg" width="57" height="55" viewBox="0 0 57 55">
  <metadata><?xpacket begin="﻿" id="W5M0MpCehiHzreSzNTczkc9d"?>
<x:xmpmeta xmlns:x="adobe:ns:meta/" x:xmptk="Adobe XMP Core 5.6-c138 79.159824, 2016/09/14-01:09:01        ">
   <rdf:RDF xmlns:rdf="http://www.w3.org/1999/02/22-rdf-syntax-ns#">
      <rdf:Description rdf:about=""/>
   </rdf:RDF>
</x:xmpmeta>
<?xpacket end="w"?></metadata>
<defs>
    <style>
      .cls-1 {
        fill: #fff;
        fill-rule: evenodd;
      }
    </style>
  </defs>
  <path class="cls-1" d="M544.148,12676.7c0.193-.3.375-0.6,0.552-0.9a8.407,8.407,0,0,0,5.746,2.2,8.5,8.5,0,1,0,0-17,8.761,8.761,0,0,0-2.827.4v-4.4a1.918,1.918,0,0,0-1.879-1.9H507.4a1.979,1.979,0,0,0-1.947,1.9v7.8a22.262,22.262,0,0,0,3.506,11.9,22.964,22.964,0,0,0,3.567,4.3h-8.642a1.842,1.842,0,0,0-1.888,1.8,1.862,1.862,0,0,0,1.888,1.9h3.444a7.314,7.314,0,0,0,7.341,6.3h23.784a7.314,7.314,0,0,0,7.34-6.3h3.456a1.862,1.862,0,0,0,1.888-1.9,1.842,1.842,0,0,0-1.888-1.8h-8.642A22.772,22.772,0,0,0,544.148,12676.7Zm3.458-11a4.734,4.734,0,0,1,2.84-1,4.8,4.8,0,0,1,0,9.6,4.7,4.7,0,0,1-4.038-2.3A21.92,21.92,0,0,0,547.606,12665.7Zm-5.676,19a3.588,3.588,0,0,1-3.473,2.5H514.673a3.587,3.587,0,0,1-3.473-2.5h30.73Zm-7.686-3.7H518.9a18.636,18.636,0,0,1-9.665-16.2v-5.9h34.607v5.9A18.572,18.572,0,0,1,534.244,12681Zm-13.329-32.3-0.925-.8a1.431,1.431,0,0,1-.552-1.1,1.526,1.526,0,0,1,.583-1.2,5.174,5.174,0,0,0,2.073-4,5.286,5.286,0,0,0-1.873-4.2,1.891,1.891,0,1,0-2.428,2.9,1.472,1.472,0,0,1,.527,1.2,1.518,1.518,0,0,1-.583,1.1,5.263,5.263,0,0,0-2.074,4.1,5.444,5.444,0,0,0,1.962,4.2l0.926,0.7a1.752,1.752,0,0,0,1.181.4,1.776,1.776,0,0,0,1.473-.7A1.82,1.82,0,0,0,520.915,12648.7Zm7.84,0.9-1.086-.8a2.113,2.113,0,0,1,.044-3.3,5.656,5.656,0,0,0,2.3-4.5,5.983,5.983,0,0,0-2.08-4.6,1.963,1.963,0,0,0-2.66.3,1.811,1.811,0,0,0,.232,2.6,2.03,2.03,0,0,1,.734,1.6,1.86,1.86,0,0,1-.813,1.6,5.888,5.888,0,0,0-2.3,4.6,5.712,5.712,0,0,0,2.18,4.6l1.086,0.9a2.5,2.5,0,0,0,1.181.4,2.106,2.106,0,0,0,1.473-.7A1.951,1.951,0,0,0,528.755,12649.6Zm7.544-.9-0.926-.8a1.434,1.434,0,0,1-.552-1.1,1.526,1.526,0,0,1,.583-1.2,5.171,5.171,0,0,0,2.073-4,5.285,5.285,0,0,0-1.872-4.2,1.892,1.892,0,1,0-2.429,2.9,1.472,1.472,0,0,1,.527,1.2,1.518,1.518,0,0,1-.583,1.1,5.263,5.263,0,0,0-2.074,4.1,5.444,5.444,0,0,0,1.962,4.2l0.926,0.7a1.754,1.754,0,0,0,1.181.4,1.775,1.775,0,0,0,1.473-.7A1.82,1.82,0,0,0,536.3,12648.7Z" transform="translate(-502 -12636)"/>
</svg>
