<svg xmlns="http://www.w3.org/2000/svg" width="62.969" height="57" viewBox="0 0 62.969 57">
  <metadata><?xpacket begin="﻿" id="W5M0MpCehiHzreSzNTczkc9d"?>
<x:xmpmeta xmlns:x="adobe:ns:meta/" x:xmptk="Adobe XMP Core 5.6-c138 79.159824, 2016/09/14-01:09:01        ">
   <rdf:RDF xmlns:rdf="http://www.w3.org/1999/02/22-rdf-syntax-ns#">
      <rdf:Description rdf:about=""/>
   </rdf:RDF>
</x:xmpmeta>
<?xpacket end="w"?></metadata>
<defs>
    <style>
      .cls-1 {
        fill: #fff;
        fill-rule: evenodd;
      }
    </style>
  </defs>
  <path id="Forma_1" data-name="Forma 1" class="cls-1" d="M1023.27,12447.7a11.169,11.169,0,0,1-1.67,1.7c-1.42,1.8-3.45,2.8-5.24,2.2-2.49-.8-3.57-4.2-2.44-7.7a8.814,8.814,0,0,1,1.55-2.8l4.2-9.9h0l1.73-4c-5.2-5.3-13.3-8.5-24.287-6.8-24.1,3.9-31.53,33.3-15.893,47.1,14.634,13,22.31,4.2,27.86-5.6a3.753,3.753,0,0,1,3.38-1.7c4.03,0.5,12.29,0,15.16-10.1a22.149,22.149,0,0,0,.56-9Zm-36.025-12.7a5,5,0,1,1-5,5A4.974,4.974,0,0,1,987.245,12435Zm-2.885,22.9a5.041,5.041,0,0,1-5-5,5,5,0,1,1,10,0A5.039,5.039,0,0,1,984.36,12457.9Zm9.806,9.9a4.95,4.95,0,1,1,5-4.9A4.954,4.954,0,0,1,994.166,12467.8Zm4.037-31.4a5.039,5.039,0,0,1-5-5,5,5,0,1,1,10,0A5.04,5.04,0,0,1,998.2,12436.4Zm32.6-18.5c-3.24.2-5.67,3.3-5.67,3.3h0.03c-0.14.2-.27,0.3-0.4,0.5a6.182,6.182,0,1,0,9.51,7.9,5.746,5.746,0,0,0,1.4-3.2h0a13.3,13.3,0,0,0-1.25-9.4S1034.03,12417.7,1030.8,12417.9Zm-14.29,31.5c1.22,0.7,3.24-.1,4.52-1.8l5.97-8.1a16.233,16.233,0,0,1-6.87-3.7c-0.15-.1-0.29-0.2-0.43-0.3l-3.87,9.1C1014.98,12446.5,1015.29,12448.7,1016.51,12449.4Zm8.43-18.3a7.113,7.113,0,0,1-2.1-3l-1.78,4.2c1.57,1.6,5.02,4.3,8.16,4.2l3.25-4.4A7.156,7.156,0,0,1,1024.94,12431.1Z" transform="translate(-973.031 -12417)"/>
</svg>
