<svg xmlns="http://www.w3.org/2000/svg" width="51" height="69" viewBox="0 0 51 69">
  <metadata><?xpacket begin="﻿" id="W5M0MpCehiHzreSzNTczkc9d"?>
<x:xmpmeta xmlns:x="adobe:ns:meta/" x:xmptk="Adobe XMP Core 5.6-c138 79.159824, 2016/09/14-01:09:01        ">
   <rdf:RDF xmlns:rdf="http://www.w3.org/1999/02/22-rdf-syntax-ns#">
      <rdf:Description rdf:about=""/>
   </rdf:RDF>
</x:xmpmeta>
                                                                                                    
                                                                                                    
                                                                                                    
                                                                                                    
                                                                                                    
                                                                                                    
                                                                                                    
                                                                                                    
                                                                                                    
                                                                                                    
                                                                                                    
                                                                                                    
                                                                                                    
                                                                                                    
                                                                                                    
                                                                                                    
                                                                                                    
                                                                                                    
                                                                                                    
                                                                                                    
                           
<?xpacket end="w"?></metadata>
<defs>
    <style>
      .cls-1 {
        fill: #fff;
        stroke: #fff;
        stroke-linejoin: round;
        stroke-width: 1px;
        fill-rule: evenodd;
      }
    </style>
  </defs>
  <path class="cls-1" d="M1017.73,8490.66a112.658,112.658,0,0,1-8.56-13.51,3.876,3.876,0,0,0-3.43-2.15,3.763,3.763,0,0,0-3.43,2.15,125.692,125.692,0,0,1-8.166,13.25c-5.767,8.41-11.144,16.31-11.144,25.11,0,13.64,9.524,23.49,22.68,23.49,13.28,0,23.32-10.11,23.32-23.49C1029,8506.77,1023.49,8498.94,1017.73,8490.66Zm-12.05,45.73c-11.666,0-20.088-8.81-20.088-20.88,0-7.96,5.183-15.59,10.625-23.61a124.052,124.052,0,0,0,8.353-13.57,1.311,1.311,0,0,1,2.34,0,117.873,117.873,0,0,0,8.74,13.83c5.51,7.96,10.76,15.46,10.76,23.35C1026.41,8527.39,1017.47,8536.39,1005.68,8536.39Zm-6.094-42.21a1.322,1.322,0,0,0-1.814.33,98.767,98.767,0,0,0-6.673,11.28,1.332,1.332,0,0,0,.647,1.76,1.778,1.778,0,0,0,.584.14,1.3,1.3,0,0,0,1.166-.72,84.381,84.381,0,0,1,6.479-10.9A1.442,1.442,0,0,0,999.586,8494.18Zm-8.423,14.87a1.315,1.315,0,0,0-1.684.72,13.953,13.953,0,0,0-.648,2.15,1.372,1.372,0,0,0,1.037,1.57h0.259a1.377,1.377,0,0,0,1.3-1.04,8.82,8.82,0,0,1,.518-1.76A1.291,1.291,0,0,0,991.163,8509.05Z" transform="translate(-980.5 -8472.5)"/>
</svg>
