<svg xmlns="http://www.w3.org/2000/svg" width="59" height="54" viewBox="0 0 59 54">
  <metadata><?xpacket begin="﻿" id="W5M0MpCehiHzreSzNTczkc9d"?>
<x:xmpmeta xmlns:x="adobe:ns:meta/" x:xmptk="Adobe XMP Core 5.6-c138 79.159824, 2016/09/14-01:09:01        ">
   <rdf:RDF xmlns:rdf="http://www.w3.org/1999/02/22-rdf-syntax-ns#">
      <rdf:Description rdf:about=""/>
   </rdf:RDF>
</x:xmpmeta>
                                                                                                    
                                                                                                    
                                                                                                    
                                                                                                    
                                                                                                    
                                                                                                    
                                                                                                    
                                                                                                    
                                                                                                    
                                                                                                    
                                                                                                    
                                                                                                    
                                                                                                    
                                                                                                    
                                                                                                    
                                                                                                    
                                                                                                    
                                                                                                    
                                                                                                    
                                                                                                    
                           
<?xpacket end="w"?></metadata>
<defs>
    <style>
      .cls-1 {
        fill: #fff;
        fill-rule: evenodd;
      }
    </style>
  </defs>
  <path id="Forma_1" data-name="Forma 1" class="cls-1" d="M984.443,12540.4a3.262,3.262,0,0,0,1.039.1,6.18,6.18,0,0,0,4.376-1.5,4.488,4.488,0,0,0,1.238-3.3,4.014,4.014,0,0,0-1.442-3.2,5.976,5.976,0,0,0-4.114-1.2,33.066,33.066,0,0,0-4.113.3v13.8h3.016v-5Zm0-6.6c0.217,0,.635-0.1,1.257-0.1,1.517,0,2.376.8,2.376,2.1,0,1.4-1,2.3-2.616,2.3-0.439,0-.758-0.1-1.019-0.1v-4.2h0Zm-5.693,16h15.022a3.516,3.516,0,0,0,3.44-3.6v-15.6a3.516,3.516,0,0,0-3.44-3.6H978.75a3.516,3.516,0,0,0-3.441,3.6v15.6A3.517,3.517,0,0,0,978.75,12549.8Zm-0.722-19a1,1,0,0,1,.928-1h14.61a1,1,0,0,1,.929,1v15.2a1,1,0,0,1-.929,1h-14.61a1,1,0,0,1-.928-1v-15.2Zm11.213,37.7a6.255,6.255,0,1,0,6.008,6.2A6.12,6.12,0,0,0,989.241,12568.5Zm0,8.1a1.831,1.831,0,0,1-1.816-1.9,1.816,1.816,0,1,1,3.628,0A1.829,1.829,0,0,1,989.241,12576.6Zm43.749-7-0.99-8.3a2.978,2.978,0,0,0-3.08-2.7l-2.15.1-6.69-6.2a3.482,3.482,0,0,0-2.34-1h-13.58a13.018,13.018,0,0,0-8.383,3.1l-7.577,6.3-10.191,2.7a3.047,3.047,0,0,0-2.229,3v3a0.82,0.82,0,0,0-.78.8v4.1a1.036,1.036,0,0,0,1,1h5.753c-0.025-.3-0.075-0.5-0.075-0.8a7.562,7.562,0,1,1,15.117,0c0,0.3-.052.5-0.077,0.8h15.93c-0.02-.3-0.07-0.5-0.07-0.8a7.559,7.559,0,1,1,15.11,0c0,0.3-.05.5-0.07,0.8h5.36a1.039,1.039,0,0,0,1.01-1v-3.8A1.06,1.06,0,0,0,1032.99,12569.6Zm-20.16-10.2-18.95,1,3.628-3a10.606,10.606,0,0,1,6.952-2.6h8.37v4.6Zm3.15-.2v-4.4h1.23a1.727,1.727,0,0,1,1.16.5l3.86,3.6Zm4.16,9.3a6.255,6.255,0,1,0,6.01,6.2A6.122,6.122,0,0,0,1020.14,12568.5Zm0,8.1a1.825,1.825,0,0,1-1.81-1.9,1.812,1.812,0,1,1,3.62,0A1.825,1.825,0,0,1,1020.14,12576.6Z" transform="translate(-975 -12527)"/>
</svg>
