<svg xmlns="http://www.w3.org/2000/svg" width="60" height="64" viewBox="0 0 60 64">
  <metadata><?xpacket begin="﻿" id="W5M0MpCehiHzreSzNTczkc9d"?>
<x:xmpmeta xmlns:x="adobe:ns:meta/" x:xmptk="Adobe XMP Core 5.6-c138 79.159824, 2016/09/14-01:09:01        ">
   <rdf:RDF xmlns:rdf="http://www.w3.org/1999/02/22-rdf-syntax-ns#">
      <rdf:Description rdf:about=""/>
   </rdf:RDF>
</x:xmpmeta>
                                                                                                    
                                                                                                    
                                                                                                    
                                                                                                    
                                                                                                    
                                                                                                    
                                                                                                    
                                                                                                    
                                                                                                    
                                                                                                    
                                                                                                    
                                                                                                    
                                                                                                    
                                                                                                    
                                                                                                    
                                                                                                    
                                                                                                    
                                                                                                    
                                                                                                    
                                                                                                    
                           
<?xpacket end="w"?></metadata>
<defs>
    <style>
      .cls-1 {
        fill: #fff;
        fill-rule: evenodd;
      }
    </style>
  </defs>
  <path id="Forma_1" data-name="Forma 1" class="cls-1" d="M552.525,12766.6a27.111,27.111,0,0,0-12.015-19.8,26.779,26.779,0,0,0-12.124-4.5c-11.871-1.6-24.372,3.7-28.85,15.4-3.85,10.1-.054,20.1,6.839,27.8,2.488,2.8,2.833,7.9,2.833,11.4v7.1a1.981,1.981,0,0,0,1.956,2h25.453a1.955,1.955,0,0,0,1.952-1.8c0.094-1.4.247-2.7,0.247-2.7,0.533-2.3,2.479-4.1,6.617-3.4,4.342,0.7,7.081-.6,7.325-3.6,0.08-.9.132-9.1,0.132-9.1,0.207-.1,1.568-0.4,3.552-0.9a2.016,2.016,0,0,0,.961-3.4c-4.51-4.5-5.115-6.6-5.227-7C551.617,12771.8,552.727,12769,552.525,12766.6Zm-8.407-2.7a2.318,2.318,0,0,1-1.718,1c-0.124,0-.211.1-0.177,0.3,0.194,0.7.391,2.6-2.977,3.3-3.158.7-5.068,3.2-6.315,4.4a6.791,6.791,0,0,1-3.547,1.7,8.058,8.058,0,0,0-3.672,1.5c-1.1,1-2.645,6.5-2.908,7.5a0.479,0.479,0,0,1-.185.1H521a0.437,0.437,0,0,1-.189-0.1l-0.785-3.8c-0.033-.1-7.647.5-8.233-2.9a0.2,0.2,0,0,0-.255-0.2c-0.733.3-3.081,0.9-4.349-1.1a3.813,3.813,0,0,1-.535-3.1,0.335,0.335,0,0,0-.109-0.3c-0.647-.2-2.981-1.5-2.664-5.9,0.255-3.5,2.6-5,2.275-5.6a3.369,3.369,0,0,1,1.816-4.7,0.239,0.239,0,0,0,.141-0.1l0.081-1c0.27-3.2,4.461-5.2,7.311-3.9a0.176,0.176,0,0,0,.277-0.1,3.044,3.044,0,0,1,1.269-1.6,3.379,3.379,0,0,1,2.944,0,0.2,0.2,0,0,0,.213-0.1,4.824,4.824,0,0,1,3.086-1.1,4.727,4.727,0,0,1,3.047,1.1c0.059,0,.139.1,0.2,0a4.268,4.268,0,0,1,3.378-.3,3.423,3.423,0,0,1,1.96,1.8c0.043,0,.133.1,0.221,0a7.018,7.018,0,0,1,3.925.3,3.832,3.832,0,0,1,2.278,2.2,0.506,0.506,0,0,0,.172.1,3.415,3.415,0,0,1,1.94.6c1.068,0.9.964,1.6,0.841,1.9a0.293,0.293,0,0,0,.094.3,5.807,5.807,0,0,1,2.705,2.7C545.227,12761.1,544.759,12763.1,544.118,12763.9Z" transform="translate(-498 -12742)"/>
</svg>
