<svg xmlns="http://www.w3.org/2000/svg" width="66" height="60" viewBox="0 0 66 60">
  <metadata><?xpacket begin="﻿" id="W5M0MpCehiHzreSzNTczkc9d"?>
<x:xmpmeta xmlns:x="adobe:ns:meta/" x:xmptk="Adobe XMP Core 5.6-c138 79.159824, 2016/09/14-01:09:01        ">
   <rdf:RDF xmlns:rdf="http://www.w3.org/1999/02/22-rdf-syntax-ns#">
      <rdf:Description rdf:about=""/>
   </rdf:RDF>
</x:xmpmeta>
<?xpacket end="w"?></metadata>
<defs>
    <style>
      .cls-1 {
        fill: #fff;
        stroke: #fff;
        stroke-linejoin: round;
        stroke-width: 1px;
        fill-rule: evenodd;
      }
    </style>
  </defs>
  <path id="Forma_1" data-name="Forma 1" class="cls-1" d="M549.089,8822.62H499.252a1.255,1.255,0,0,1,0-2.51h49.595a0.97,0.97,0,0,1,.242-0.02,7.435,7.435,0,1,0-7.408-7.44,1.252,1.252,0,1,1-2.5,0,9.912,9.912,0,1,1,10.17,9.95A2.157,2.157,0,0,1,549.089,8822.62Zm-25.67-8.7H499.252a1.255,1.255,0,0,1,0-2.51h23.925a0.972,0.972,0,0,1,.242-0.03,7.435,7.435,0,1,0-7.408-7.43,1.252,1.252,0,0,1-2.5,0,9.912,9.912,0,1,1,10.171,9.94A1.112,1.112,0,0,1,523.419,8813.92Zm15.34,35.08a9.939,9.939,0,0,1-9.911-9.95,1.252,1.252,0,0,1,2.5,0,7.408,7.408,0,1,0,7.407-7.43H499.252a1.26,1.26,0,0,1,0-2.52h39.507A9.95,9.95,0,0,1,538.759,8849Z" transform="translate(-495.5 -8791.5)"/>
</svg>
