<svg xmlns="http://www.w3.org/2000/svg" width="64" height="58" viewBox="0 0 64 58">
  <metadata><?xpacket begin="﻿" id="W5M0MpCehiHzreSzNTczkc9d"?>
<x:xmpmeta xmlns:x="adobe:ns:meta/" x:xmptk="Adobe XMP Core 5.6-c138 79.159824, 2016/09/14-01:09:01        ">
   <rdf:RDF xmlns:rdf="http://www.w3.org/1999/02/22-rdf-syntax-ns#">
      <rdf:Description rdf:about=""/>
   </rdf:RDF>
</x:xmpmeta>
<?xpacket end="w"?></metadata>
<defs>
    <style>
      .cls-1 {
        fill: #fff;
        fill-rule: evenodd;
      }
    </style>
  </defs>
  <path id="Forma_1" data-name="Forma 1" class="cls-1" d="M992.609,8595.97h0.017v-0.01a5.387,5.387,0,0,0-1.727-10.63H990.89s-0.006,0-.008.01h0A5.387,5.387,0,0,0,992.609,8595.97Zm19.6,31.8-10.31-10.55c-0.71-.85-2.62-12.99-2.7-13.49a4.039,4.039,0,0,1,.153-2.12s5.179-13.44,5.709-14.92,0.49-2.45-.52-3.18-2.74-.76-3.15.52l-5.554,13.45a6.788,6.788,0,0,0-2.979-.29c-0.013,0-.026.01-0.039,0.01a0.057,0.057,0,0,0-.039.01,6.758,6.758,0,0,0-2.732,1.23l-9.519-10.96c-1.123-1.1-2.425-.5-3.153.53s-0.312,2.17.517,3.18,10.133,12.3,10.133,12.3a4,4,0,0,1,.813,1.95c0.016,0.11.021,0.14,2.015,12.41l1.338,20.76a2.546,2.546,0,0,0,2.527,2.39,0.942,0.942,0,0,0,.167-0.01,2.546,2.546,0,0,0,2.364-2.71s-1.206-18.06-1.206-18.72c0-.41.393-0.64,0.857-0.17s11.7,11.98,11.7,11.98a2.532,2.532,0,0,0,3.59.02A2.587,2.587,0,0,0,1012.21,8627.77Zm11.63-26.81h0l0.01,0.01h0c0.02,0,.04.01,0.06,0.01a0.076,0.076,0,0,0,.05.02h0c0,0.01,0,.01.01,0.01h0a4.15,4.15,0,0,0,5.21-2.63,4.207,4.207,0,0,0-2.52-5.3h0l-0.01-.01h0c-0.02,0-.03-0.01-0.05-0.01a0.142,0.142,0,0,0-.06-0.02h0.01c-0.01,0-.01,0-0.01-0.01h-0.01a4.144,4.144,0,0,0-5.2,2.63A4.2,4.2,0,0,0,1023.84,8600.96Zm17.1,1.74c-0.22-.96-1.14-1.37-2.8-1.03l-12.45,1.36a4.874,4.874,0,0,0-2.07-1.22,4.821,4.821,0,0,0-2.36-.32l-9.01-8.78c-1.1-1.3-2.08-1.54-2.83-.92a1.926,1.926,0,0,0-.55,2.59c0.8,1,8.86,9.35,9.16,9.82s0.17,0.68-.16,1.64c-0.14.41-2.28,6.44-3.09,8.67l-10.64,7.25a2.052,2.052,0,0,0-.55,2.84,2.016,2.016,0,0,0,2.81.55s11.22-7.61,11.5-7.82,0.63-.08.51,0.31-4.82,15.36-4.82,15.36a2.062,2.062,0,0,0,1.32,2.57,1.915,1.915,0,0,0,.62.1,2.028,2.028,0,0,0,1.93-1.43l5.3-16.9a1.291,1.291,0,0,0,.05-0.21c3.01-8.87,2.99-8.8,2.91-8.57,0.33-.97.35-1.19,0.87-1.39s11.96-1.79,13.2-2.09A1.926,1.926,0,0,0,1040.94,8602.7Z" transform="translate(-977 -8583)"/>
</svg>
