<svg xmlns="http://www.w3.org/2000/svg" width="57" height="58" viewBox="0 0 57 58">
  <metadata><?xpacket begin="﻿" id="W5M0MpCehiHzreSzNTczkc9d"?>
<x:xmpmeta xmlns:x="adobe:ns:meta/" x:xmptk="Adobe XMP Core 5.6-c138 79.159824, 2016/09/14-01:09:01        ">
   <rdf:RDF xmlns:rdf="http://www.w3.org/1999/02/22-rdf-syntax-ns#">
      <rdf:Description rdf:about=""/>
   </rdf:RDF>
</x:xmpmeta>
                                                                                                    
                                                                                                    
                                                                                                    
                                                                                                    
                                                                                                    
                                                                                                    
                                                                                                    
                                                                                                    
                                                                                                    
                                                                                                    
                                                                                                    
                                                                                                    
                                                                                                    
                                                                                                    
                                                                                                    
                                                                                                    
                                                                                                    
                                                                                                    
                                                                                                    
                                                                                                    
                           
<?xpacket end="w"?></metadata>
<defs>
    <style>
      .cls-1 {
        fill: #fff;
        fill-rule: evenodd;
      }
    </style>
  </defs>
  <path class="cls-1" d="M551.432,12454.4c-1.055.9-2.554,0.5-2.554-1.3v-4.5a2.429,2.429,0,0,0-2.413-2.4h-3.081a5.171,5.171,0,0,1,.539,2.3,4.939,4.939,0,0,1-5.014,4.9h-0.187a4.939,4.939,0,0,1-5.014-4.9,5.171,5.171,0,0,1,.539-2.3h-3.268a2.341,2.341,0,0,0-2.366,2.4v4.5c0,1.8-1.523,2.2-2.577,1.3-1.746-1.6-4.4-.7-4.522,2.1,0.117,2.8,2.776,3.7,4.51,2.1,1.054-.9,2.589-0.5,2.589,1.3v4.5a2.4,2.4,0,0,0,2.366,2.4h4.4c1.828,0,2.226,1.5,1.3,2.6a2.773,2.773,0,1,0,4.17,0,1.564,1.564,0,0,1,1.3-2.7h4.381a2.341,2.341,0,0,0,2.366-2.4v-4.4c0-1.8,1.488-2.2,2.542-1.3,1.722,1.6,4.381.7,4.5-2.1C555.824,12453.7,553.177,12452.8,551.432,12454.4Zm0.023-23a1.516,1.516,0,0,1-2.6-1.3v-4.5a2.4,2.4,0,0,0-2.366-2.4h-4.346c-1.827,0-2.225-1.5-1.3-2.5a2.7,2.7,0,0,0-2.085-4.6c-2.8.1-3.619,2.8-2.085,4.5,0.937,1.1.527,2.6-1.3,2.6h-4.393a2.451,2.451,0,0,0-2.413,2.5v3.1a5.909,5.909,0,0,1,2.261-.5c2.717,0,4.767,2.1,4.884,5.1h0v0.1c-0.117,3-2.167,5.1-4.873,5.1a5.811,5.811,0,0,1-2.26-.5v3.3h0a2.4,2.4,0,0,0,2.366,2.4h4.439c1.828,0,2.226,1.6,1.3,2.6a2.773,2.773,0,1,0,4.17,0c-0.937-1-.527-2.6,1.3-2.6H546.5a2.4,2.4,0,0,0,2.366-2.4v-4.5c0-1.8,1.535-2.2,2.589-1.3,1.745,1.6,4.428.7,4.545-2.1C555.883,12430.7,553.2,12429.8,551.455,12431.4Zm-27.4,14.7h-4.439c-1.828,0-2.226-1.5-1.3-2.6a2.773,2.773,0,1,0-4.17,0c0.937,1.1.527,2.6-1.3,2.6H508.5a2.4,2.4,0,0,0-2.366,2.4v4.5c0,1.9-1.535,2.3-2.589,1.3a2.68,2.68,0,0,0-4.545,2.1c0.106,2.9,2.8,3.7,4.533,2.1a1.516,1.516,0,0,1,2.6,1.3v4.5a2.4,2.4,0,0,0,2.366,2.4h4.346c1.827,0,2.226,1.5,1.3,2.6-1.534,1.8-.714,4.4,2.085,4.6,2.8-.2,3.62-2.8,2.085-4.6-0.937-1.1-.527-2.6,1.3-2.6h4.392a2.451,2.451,0,0,0,2.413-2.5v-3.1a4.611,4.611,0,0,1-2.26.6,5,5,0,0,1-4.873-5.1v-0.2c0.117-3,2.167-5.1,4.873-5.1a5.811,5.811,0,0,1,2.26.5v-3.2h0v-0.1A2.4,2.4,0,0,0,524.056,12446.1Zm4.92-14.7c-1.054.9-2.589,0.5-2.589-1.4v-4.4a2.4,2.4,0,0,0-2.366-2.4h-4.4c-1.828,0-2.226-1.5-1.3-2.6a2.773,2.773,0,1,0-4.17,0,1.564,1.564,0,0,1-1.3,2.7h-4.358a2.341,2.341,0,0,0-2.366,2.4v4.4c0,1.8-1.487,2.2-2.542,1.3-1.745-1.6-4.4-.7-4.521,2.1,0.117,2.8,2.764,3.7,4.51,2.1,1.054-1,2.553-.5,2.553,1.3v4.5a2.429,2.429,0,0,0,2.413,2.4h3.081a5.171,5.171,0,0,1-.539-2.3,4.939,4.939,0,0,1,5.014-4.9h0.187a4.939,4.939,0,0,1,5.014,4.9,5.171,5.171,0,0,1-.539,2.3h3.268a2.341,2.341,0,0,0,2.366-2.4v-4.5c0-1.8,1.523-2.2,2.577-1.3,1.746,1.6,4.4.7,4.522-2.1C533.369,12430.6,530.71,12429.8,528.976,12431.4Z" transform="translate(-499 -12416)"/>
</svg>
