<svg xmlns="http://www.w3.org/2000/svg" width="47" height="55" viewBox="0 0 47 55">
  <metadata><?xpacket begin="﻿" id="W5M0MpCehiHzreSzNTczkc9d"?>
<x:xmpmeta xmlns:x="adobe:ns:meta/" x:xmptk="Adobe XMP Core 5.6-c138 79.159824, 2016/09/14-01:09:01        ">
   <rdf:RDF xmlns:rdf="http://www.w3.org/1999/02/22-rdf-syntax-ns#">
      <rdf:Description rdf:about=""/>
   </rdf:RDF>
</x:xmpmeta>
                                                                                                    
                                                                                                    
                                                                                                    
                                                                                                    
                                                                                                    
                                                                                                    
                                                                                                    
                                                                                                    
                                                                                                    
                                                                                                    
                                                                                                    
                                                                                                    
                                                                                                    
                                                                                                    
                                                                                                    
                                                                                                    
                                                                                                    
                                                                                                    
                                                                                                    
                                                                                                    
                           
<?xpacket end="w"?></metadata>
<defs>
    <style>
      .cls-1 {
        fill: #fff;
        fill-rule: evenodd;
      }
    </style>
  </defs>
  <path id="Forma_1" data-name="Forma 1" class="cls-1" d="M993.173,8719.79a3.5,3.5,0,0,0,1.771,2.74,11.188,11.188,0,0,0,2.678,1.08,28.442,28.442,0,0,1-3.146,6.95,8.152,8.152,0,0,0-.051,8.48c2.311,4.17,7.415,6.97,12.705,6.97a11.071,11.071,0,0,0,9.08-4.71c3.19-4.34,3.9-10.75,1.89-17.13-1.86-5.92.63-9.08,2.27-10.44a7.454,7.454,0,1,0-2.29-5.37,7.3,7.3,0,0,0,.2,1.69c-3.11,2.27-6.69,7.38-4.18,15.38,1.58,5.04,1.09,10.17-1.27,13.39a6.941,6.941,0,0,1-5.71,2.99c-3.74,0-7.457-1.97-9.026-4.8a4.038,4.038,0,0,1-.06-4.23,32.668,32.668,0,0,0,3.876-8.92,11.4,11.4,0,0,0,3.61-1.21,3.5,3.5,0,0,0,1.81-2.64c4.93-4.45,7.2-12.48,7.33-12.95a2.1,2.1,0,0,0-1.03-2.41c0.68-6.02-1.55-9.06-2.9-10.3a1.522,1.522,0,0,0-.64-1.53l-2.47-1.61a1.234,1.234,0,0,0-1.81.48l-1.18,2.27a1.113,1.113,0,0,0,.7,1.64l2.8,0.83a1.823,1.823,0,0,0,1.96-.75c1.11,1.17,2.72,3.78,2.16,8.77a2.084,2.084,0,0,0-1.63,1.49c-0.67,2.41-2.61,7.39-5.49,10.38a3.5,3.5,0,0,0-2.91.16,3.864,3.864,0,0,1-1.81.5h-0.13a4,4,0,0,1-1.917-.55,3.486,3.486,0,0,0-2.866-.24c-2.817-3-4.716-7.87-5.376-10.25a2.093,2.093,0,0,0-1.633-1.49c-0.553-4.99,1.051-7.6,2.166-8.77a1.823,1.823,0,0,0,1.959.75l2.8-.83a1.11,1.11,0,0,0,.7-1.64l-1.177-2.27a1.236,1.236,0,0,0-1.812-.48l-2.475,1.61a1.534,1.534,0,0,0-.638,1.54c-1.343,1.23-3.576,4.27-2.895,10.3a2.091,2.091,0,0,0-1.035,2.4C986.205,8707.52,988.411,8715.29,993.173,8719.79Zm32.367-14.34a2.915,2.915,0,1,1-2.91,2.91A2.906,2.906,0,0,1,1025.54,8705.45Z" transform="translate(-986 -8691)"/>
</svg>
